<svg width="150" height="150" fill="none" xmlns="http://www.w3.org/2000/svg"><g clip-path="url(#clip0)" fill="#544D4D"><path d="M42.728 41.724c-7.265 7.269-7.265 19.103 0 26.382l3.25 3.252-3.251 3.253c-7.26 7.273-7.26 19.106.001 26.38 3.634 3.636 8.407 5.453 13.183 5.453 4.775 0 9.551-1.817 13.188-5.451l.001-.002 3.251-3.252 3.247 3.254a18.588 18.588 0 0013.184 5.447c4.775 0 9.552-1.817 13.189-5.45 7.258-7.273 7.258-19.106-.004-26.382l-3.251-3.248 3.255-3.256c7.263-7.278 7.263-19.112-.003-26.382-7.27-7.263-19.1-7.264-26.371.002l-3.248 3.25-3.25-3.252c-7.275-7.268-19.105-7.267-26.37.002zm26.327 14.833L87.16 74.63l-5.623 5.63-.008.008-5.896 5.895-18.09-18.086 11.513-11.52zm-4.098 40.29c-4.99 4.987-13.102 4.987-18.083.004-4.981-4.99-4.981-13.11-.002-18.099l5.32-5.321v-.001L53.4 72.22l18.088 18.085-1.211 1.211c-.029.029-.053.06-.08.09l-5.24 5.24zm32.866-18.096c4.981 4.99 4.981 13.11.003 18.097-4.986 4.982-13.1 4.982-18.084.003l-3.25-3.257 1.215-1.214 7.78-7.784.188-.188 8.899-8.903 3.249 3.246zM79.74 45.868a12.755 12.755 0 019.043-3.737c3.274 0 6.55 1.245 9.041 3.735 4.984 4.986 4.983 13.105 0 18.097L92.58 69.21c-.028.026-.058.05-.085.077L91.3 70.483l-18.102-18.07 1.22-1.222.001-.001h.001l5.32-5.322zm-14.784-.002l3.25 3.252-1.225 1.226-.001.001-.002.002-16.857 16.867-3.247-3.25c-4.985-4.993-4.985-13.112-.002-18.098 4.983-4.984 13.095-4.984 18.084 0z"/><path d="M136.27 103.035a71.483 71.483 0 007.401-31.677c0-19.06-7.419-36.98-20.889-50.458C109.311 7.423 91.4 0 72.348 0 53.296 0 35.385 7.423 21.914 20.9 8.444 34.378 1.025 52.298 1.025 71.358c0 19.061 7.419 36.981 20.89 50.458 13.47 13.478 31.381 20.901 50.433 20.901 10.213 0 20.029-2.109 29.228-6.26C105.771 144.496 114.178 150 123.85 150c13.854 0 25.125-11.276 25.125-25.136 0-9.339-5.124-17.497-12.705-21.829zm-63.922 33.823c-36.097 0-65.463-29.383-65.463-65.5C6.885 35.243 36.25 5.86 72.348 5.86c36.097 0 65.463 29.383 65.463 65.5a65.601 65.601 0 01-6.947 29.381 25.037 25.037 0 00-6.69-.995c4.755-8.667 7.246-18.367 7.246-28.387 0-13.55-4.458-26.297-12.892-36.86-8.187-10.255-19.681-17.575-32.367-20.615a2.931 2.931 0 00-1.365 5.698c24.001 5.751 40.765 27.043 40.765 51.778 0 10.542-3.057 20.69-8.851 29.418-7.811 2.323-14.04 8.35-16.646 16.039-8.324 5.096-17.883 7.784-27.716 7.784-29.346 0-53.22-23.883-53.22-53.241 0-24.719 16.753-46.01 40.74-51.778a2.93 2.93 0 10-1.37-5.697c-12.677 3.048-24.164 10.372-32.345 20.624-8.43 10.563-12.885 23.306-12.885 36.851 0 32.588 26.503 59.101 59.08 59.101a58.896 58.896 0 0026.402-6.22c-.005.208-.015.415-.015.624 0 2.107.263 4.152.753 6.108-8.532 3.903-17.648 5.886-27.14 5.886zm51.502 7.283c-10.618 0-19.256-8.648-19.256-19.277 0-10.624 8.638-19.268 19.256-19.268 10.623 0 19.265 8.644 19.265 19.268 0 10.629-8.642 19.277-19.265 19.277z"/><path d="M132.856 121.934h-6.076v-6.073a2.93 2.93 0 00-5.86 0v6.073h-6.067a2.93 2.93 0 000 5.859h6.067v6.081a2.93 2.93 0 005.86 0v-6.081h6.076a2.93 2.93 0 000-5.859zM72.332 18.11h.016a2.923 2.923 0 002.922-2.93c0-1.618-1.32-2.93-2.938-2.93a2.93 2.93 0 000 5.86z"/></g><defs><clipPath id="clip0"><path fill="#fff" d="M0 0h150v150H0z"/></clipPath></defs></svg>