<svg width="150" height="150" fill="none" xmlns="http://www.w3.org/2000/svg"><path d="M3.68 93.478a17.83 17.83 0 002.597 1.5c1.08.552 2.89 1.477 3.018 2.125A4.342 4.342 0 019 99.635c-.373.8-.763 1.488-1.1 2.08-.915 1.618-2.448 4.328-.138 6.215.54.5 1.473 1.223 2.323 1.875a6.3 6.3 0 00-.813 3.608 3.599 3.599 0 001.483 2.457c.555.393 1.147.733 1.732 1.065 1.478.843 2.055 1.235 2.25 2.018a6.888 6.888 0 01-.25 3c-.147.667-.29 1.337-.375 2a14.878 14.878 0 00.823 6.735 9.365 9.365 0 008.842 6.812 10.017 10.017 0 002.05-.217 189.605 189.605 0 0021.078-6.308c5.632 3.305 9.19 13.355 10.117 17.128A2.5 2.5 0 0059.45 150l62.75-.175a2.5 2.5 0 002.38-3.25 19.323 19.323 0 00-2.533-4.75 23.229 23.229 0 01-1.617-2.705 47.122 47.122 0 01-2.823-7.11 84.393 84.393 0 01-2.935-14.625 2.501 2.501 0 10-4.96.61 89.154 89.154 0 003.118 15.5 52.296 52.296 0 003.102 7.825 27.758 27.758 0 001.938 3.268l.167.25L61.34 145a39.832 39.832 0 00-8.8-15.965l2.25-.787a204.541 204.541 0 013.585-1.233c10.71-3.387 16.065-8.265 15.92-14.5a2.435 2.435 0 00-2.545-2.44 2.5 2.5 0 00-2.44 2.558c.06 2.572-2.048 6.325-12.44 9.612-.678.218-1.983.673-3.715 1.278-1.858.65-4.22 1.475-6.825 2.36h-.018a194.567 194.567 0 01-21.5 6.5 4.425 4.425 0 01-5.145-3.333 9.939 9.939 0 01-.587-4.46c.065-.525.185-1.045.3-1.567.51-1.729.584-3.558.217-5.323a8.309 8.309 0 00-4.627-5.11l-.52-.297c.27-.545.592-1.063.962-1.545a2.5 2.5 0 00-.477-3.56c-.6-.44-2.015-1.5-3.05-2.335.12-.218.25-.458.375-.675.392-.688.84-1.488 1.277-2.413a9.371 9.371 0 00.668-5.595c-.6-3.05-3.52-4.544-5.653-5.635a14.202 14.202 0 01-2.055-1.192 10.605 10.605 0 01-1.5-1.22c0-.378.405-1.293 2.31-3.615A100.559 100.559 0 0018.75 65.923a7.385 7.385 0 00.967-3.383 8.75 8.75 0 00-3.652-6.25c-1.013-.927-1.965-1.802-2.075-2.61.017-.592.149-1.175.39-1.717.407-1.073.877-2.123 1.35-3.175a36.522 36.522 0 002.445-6.593l.25-1.065c.53-2.499 1.213-4.964 2.045-7.38a42.873 42.873 0 018.97-14.652c4.782-5.06 12.31-8.64 22.41-10.648a162.497 162.497 0 0123.455-3.38 53.32 53.32 0 0111.767.668 2.5 2.5 0 00.855-4.925A58.063 58.063 0 0075.045.078a166.859 166.859 0 00-24.183 3.47C39.59 5.798 31.397 9.75 25.805 15.66a47.9 47.9 0 00-10.028 16.358c-.9 2.613-1.64 5.279-2.215 7.982l-.25 1.055a32.624 32.624 0 01-2.137 5.695c-.5 1.14-1.02 2.28-1.468 3.46a8.373 8.373 0 00-.662 4.183 9.545 9.545 0 003.645 5.582c1.222 1.123 2.025 1.913 2.035 2.6-.09.381-.235.747-.428 1.088a96.446 96.446 0 01-10.95 17.792c-1.807 2.203-3.7 4.77-3.297 7.338a7.632 7.632 0 003.63 4.685z" fill="#544D4D"/><path d="M27.917 44.483l.25-1.112c.438-2.078.995-4.13 1.668-6.145a32.94 32.94 0 016.86-11.25 26.175 26.175 0 0111.522-6.328 2.5 2.5 0 10-1.455-4.782 30.96 30.96 0 00-13.702 7.678A37.952 37.952 0 0025.152 35.5a59.576 59.576 0 00-1.852 6.773l-.25 1.082a2.5 2.5 0 002.435 3.065 2.5 2.5 0 002.432-1.938zM22.5 55a2.5 2.5 0 100-5 2.5 2.5 0 000 5zM67.5 50.525a34.265 34.265 0 008.447 23.225 42.963 42.963 0 005.75 5c3.658 2.828 7.123 5.53 8.043 9.29A7.5 7.5 0 0085 95v5a7.5 7.5 0 005 7.04v.46c0 5.523 4.477 10 10 10 5.522 0 10-4.477 10-10v-.46a7.503 7.503 0 005-7.04v-5a7.501 7.501 0 00-4.75-6.96c.917-3.75 4.385-6.463 8.042-9.29a43.061 43.061 0 005.75-5 34.287 34.287 0 008.458-23.225c-.07-18.007-14.497-32.667-32.5-33.025-18.004.358-32.43 15.018-32.5 33.025zM92.5 55H90a2.5 2.5 0 112.5-2.5V55zm10 32.5h-5V60h5v27.5zm-2.5 25a5 5 0 01-5-5h10a5 5 0 01-5 5zm10-12.5a2.5 2.5 0 01-2.5 2.5h-15A2.5 2.5 0 0190 100v-5a2.5 2.5 0 012.5-2.5h15A2.5 2.5 0 01110 95v5zm17.5-49.398a29.234 29.234 0 01-7.158 19.798 39.101 39.101 0 01-5.092 4.392 34.984 34.984 0 00-7.75 7.398V60h2.5a7.5 7.5 0 10-7.5-7.5V55h-5v-2.5A7.5 7.5 0 1090 60h2.5v22.19a34.956 34.956 0 00-7.738-7.395 39.128 39.128 0 01-5.095-4.395A29.217 29.217 0 0172.5 50.602C72.75 35.368 85.33 22.5 100 22.5s27.262 12.867 27.5 28.102zM107.5 55v-2.5A2.5 2.5 0 11110 55h-2.5zM140 52.5h7.5a2.5 2.5 0 100-5H140a2.5 2.5 0 100 5zM128.282 24.219a2.5 2.5 0 001.77-.733l5.303-5.305a2.502 2.502 0 00-1.104-4.217 2.5 2.5 0 00-2.431.682l-5.305 5.303a2.5 2.5 0 001.767 4.27zM100 12.5a2.5 2.5 0 002.5-2.5V2.5a2.5 2.5 0 10-5 0V10a2.5 2.5 0 002.5 2.5zM73.485 23.486a2.5 2.5 0 000-3.537l-5.305-5.303a2.5 2.5 0 10-3.535 3.535l5.302 5.305a2.5 2.5 0 003.538 0zM52.5 47.5a2.5 2.5 0 000 5H60a2.5 2.5 0 000-5h-7.5z" fill="#544D4D"/></svg>