<svg width="150" height="150" fill="none" xmlns="http://www.w3.org/2000/svg"><path d="M3.68 93.478c.822.57 1.69 1.072 2.595 1.5 1.08.552 2.892 1.477 3.02 2.125A4.345 4.345 0 019 99.635c-.373.8-.763 1.488-1.1 2.08-.915 1.618-2.448 4.328-.138 6.215.54.5 1.473 1.223 2.323 1.875a6.298 6.298 0 00-.813 3.608c.133.989.67 1.88 1.483 2.459.555.39 1.147.73 1.73 1.063 1.48.84 2.058 1.233 2.25 2.017a6.887 6.887 0 01-.25 3 22.89 22.89 0 00-.375 2 14.88 14.88 0 00.822 6.736 9.365 9.365 0 008.845 6.812 10.088 10.088 0 002.05-.217 189.605 189.605 0 0021.078-6.308c5.633 3.305 9.19 13.355 10.117 17.128A2.5 2.5 0 0059.45 150l62.75-.175a2.5 2.5 0 002.38-3.25 19.287 19.287 0 00-2.533-4.75 23.454 23.454 0 01-1.617-2.705 47.22 47.22 0 01-2.823-7.115 83.952 83.952 0 01-2.957-14.785 42.214 42.214 0 011.625-17.22h6.225a7.5 7.5 0 007.5-7.5V60a2.5 2.5 0 00-2.5-2.5h-10.09a8.75 8.75 0 10-17.32 0H92.5v-7.587a8.849 8.849 0 004.11-.388 8.682 8.682 0 005.667-6.295A8.747 8.747 0 0092.5 32.59V22.5A2.5 2.5 0 0090 20H57.5a7.5 7.5 0 00-7.5 7.5v65a7.5 7.5 0 007.5 7.5h53.525a47.296 47.296 0 00-1.333 17.825 89.22 89.22 0 003.145 15.675 52.493 52.493 0 003.103 7.825 27.738 27.738 0 001.937 3.267l.168.25L61.34 145a39.833 39.833 0 00-8.8-15.965l2.25-.788a193.914 193.914 0 013.585-1.232c10.71-3.387 16.065-8.265 15.92-14.5a2.5 2.5 0 10-5 .118c.06 2.572-2.047 6.324-12.44 9.612-.677.217-1.982.673-3.715 1.277-1.858.651-4.22 1.476-6.825 2.36h-.017a194.359 194.359 0 01-21.5 6.5 4.422 4.422 0 01-5.13-3.332 9.939 9.939 0 01-.588-4.46c.065-.525.185-1.045.3-1.568.51-1.728.584-3.555.218-5.32a8.291 8.291 0 00-4.63-5.114l-.518-.296c.27-.545.592-1.062.963-1.545a2.5 2.5 0 00-.478-3.559c-.6-.441-2.015-1.5-3.05-2.335.12-.218.25-.458.375-.675.393-.688.84-1.488 1.277-2.413a9.373 9.373 0 00.668-5.595c-.6-3.05-3.523-4.545-5.653-5.635-.719-.342-1.409-.742-2.062-1.197-.532-.36-1.03-.765-1.49-1.213 0-.38.407-1.3 2.312-3.618a100.927 100.927 0 0011.45-18.59 7.44 7.44 0 00.963-3.377 8.75 8.75 0 00-3.652-6.25c-1-.928-1.963-1.803-2.075-2.617.016-.59.149-1.172.39-1.71.407-1.073.877-2.123 1.35-3.175a36.528 36.528 0 002.445-6.593l.25-1.065a62.485 62.485 0 012.037-7.38 42.871 42.871 0 018.97-14.652c4.782-5.06 12.31-8.64 22.41-10.648a162.215 162.215 0 0123.447-3.377A53.785 53.785 0 01107.5 13.83v2.42a2.5 2.5 0 004 2 3.854 3.854 0 015.167.663c.727.908.994 2.1.723 3.232a3.707 3.707 0 01-2.39 2.643 3.775 3.775 0 01-3.515-.538 2.5 2.5 0 00-3.985 2V37.5a5 5 0 005 5h11.25a2.5 2.5 0 002-4 3.75 3.75 0 116 0 2.5 2.5 0 002 4h13.75A2.5 2.5 0 00150 40V7.5a7.5 7.5 0 00-7.5-7.5H110a2.5 2.5 0 00-2.5 2.5v5.343A59.22 59.22 0 0075.045.077a166.86 166.86 0 00-24.183 3.47C39.59 5.797 31.397 9.75 25.805 15.66a47.899 47.899 0 00-10.027 16.357A67.784 67.784 0 0013.561 40l-.25 1.055a32.624 32.624 0 01-2.137 5.695c-.5 1.14-1.02 2.28-1.468 3.46a8.348 8.348 0 00-.66 4.18 9.555 9.555 0 003.643 5.59c1.223 1.12 2.025 1.91 2.035 2.598-.09.38-.233.745-.425 1.084A96.71 96.71 0 013.362 81.44C1.55 83.645-.35 86.218.05 88.793a7.64 7.64 0 003.63 4.684zM55 27.5a2.5 2.5 0 012.5-2.5h30v11.25a2.5 2.5 0 004 2 3.855 3.855 0 015.168.663 3.77 3.77 0 01.722 3.232A3.708 3.708 0 0195 44.787a3.775 3.775 0 01-3.522-.547 2.5 2.5 0 00-3.978 2.01V57.5h-7.585a8.888 8.888 0 00-.39-4.105 8.685 8.685 0 00-6.293-5.675A8.75 8.75 0 0062.59 57.5H55v-30zm0 65v-30h11.25a2.5 2.5 0 002-4 3.75 3.75 0 01.662-5.17 3.772 3.772 0 013.235-.72 3.693 3.693 0 012.64 2.39 3.75 3.75 0 01-.55 3.52 2.5 2.5 0 002.013 3.98H87.5v7.59a8.75 8.75 0 100 17.32V95h-30a2.5 2.5 0 01-2.5-2.5zm36.112-11a2.515 2.515 0 00-2.622.25 3.75 3.75 0 110-6 2.5 2.5 0 004-2V62.5h11.25a2.5 2.5 0 002-4 3.75 3.75 0 116 0 2.5 2.5 0 002 4H125v30a2.5 2.5 0 01-2.5 2.5h-30V83.75a2.5 2.5 0 00-1.388-2.25zM112.5 5h30a2.5 2.5 0 012.5 2.5v30h-7.59a8.75 8.75 0 10-17.32 0h-7.59v-7.587a8.846 8.846 0 004.11-.388 8.682 8.682 0 005.667-6.295 8.747 8.747 0 00-9.777-10.64V5z" fill="#544D4D"/><path d="M27.915 44.477l.25-1.085a56.13 56.13 0 011.685-6.178 32.665 32.665 0 016.877-11.25 21.104 21.104 0 016.8-4.58 2.5 2.5 0 10-2.044-4.56 25.955 25.955 0 00-8.393 5.71A37.613 37.613 0 0025.152 35.5a60.012 60.012 0 00-1.867 6.778l-.25 1.1a2.5 2.5 0 002.44 3.062 2.5 2.5 0 002.44-1.962zM22.5 55a2.5 2.5 0 100-5 2.5 2.5 0 000 5z" fill="#544D4D"/></svg>