<svg width="40" height="40" fill="none" xmlns="http://www.w3.org/2000/svg"><path d="M4.655 4.665v34.65c0 .367.299.666.667.666h25.32a.666.666 0 00.666-.667V11.33c0-.015-.007-.028-.008-.042a.63.63 0 00-.034-.172c-.007-.021-.013-.042-.022-.063a.66.66 0 00-.133-.195l-6.664-6.663a.645.645 0 00-.257-.155.662.662 0 00-.173-.035c-.01.002-.024-.005-.038-.005H5.322a.666.666 0 00-.667.666zm24.379 5.997h-4.389V6.274l4.389 4.388zM5.988 5.332h17.325v5.997c0 .367.298.666.666.666h5.997v26.653H5.988V5.332z" fill="#544D4D"/><path d="M32.641 34.65v1.332h2a.666.666 0 00.666-.666V.666A.666.666 0 0034.64 0H9.32a.666.666 0 00-.667.666v2h1.333V1.332h23.988v33.316h-1.333z" fill="#544D4D"/><path d="M9.985 13.328h15.992v1.332H9.985v-1.332zM9.985 9.329h5.331v1.332h-5.33V9.33zM9.985 17.324h10.662v1.333H9.985v-1.333zM21.98 17.324h3.997v1.333H21.98v-1.333zM9.985 21.323h15.992v1.333H9.985v-1.333zM9.985 29.32h15.992v1.332H9.985V29.32zM15.982 25.32h9.995v1.333h-9.995V25.32zM9.985 25.32h4.665v1.333H9.985V25.32zM9.985 33.316h2.666v1.333H9.985v-1.333zM13.984 33.316h11.994v1.333H13.984v-1.333z" fill="#544D4D"/></svg>