<svg width="20" height="20" fill="none" xmlns="http://www.w3.org/2000/svg"><g clip-path="url(#clip0)"><path d="M18.395 13.128c-1.224 0-2.427-.192-3.566-.568-.568-.194-1.215-.044-1.585.334l-2.249 1.697C8.387 13.2 6.781 11.593 5.407 9.005l1.648-2.19a1.617 1.617 0 00.398-1.638 11.373 11.373 0 01-.57-3.572C6.883.72 6.163 0 5.278 0H1.605C.72 0 0 .72 0 1.605 0 11.748 8.252 20 18.395 20 19.28 20 20 19.28 20 18.395v-3.662c0-.885-.72-1.605-1.605-1.605zm.494 5.267a.494.494 0 01-.494.494c-9.53 0-17.284-7.753-17.284-17.284 0-.272.222-.494.494-.494h3.673c.272 0 .494.222.494.494 0 1.344.21 2.663.623 3.912.058.185.011.375-.175.57L4.31 8.616a.556.556 0 00-.052.586c1.559 3.064 3.453 4.958 6.538 6.54a.553.553 0 00.588-.052l2.587-1.96a.49.49 0 01.504-.117c1.258.415 2.577.626 3.92.626.273 0 .494.221.494.494v3.662z" fill="#544D4D"/></g><defs><clipPath id="clip0"><path fill="#fff" d="M0 0h20v20H0z"/></clipPath></defs></svg>