<svg width="40" height="40" fill="none" xmlns="http://www.w3.org/2000/svg"><path d="M29.172 0H10.828C4.858 0 0 4.857 0 10.828v18.345C0 35.143 4.857 40 10.828 40h18.345C35.143 40 40 35.143 40 29.173V10.828C40 4.858 35.143 0 29.172 0zM20 30.937c-6.03 0-10.937-4.906-10.937-10.937 0-6.03 4.906-10.937 10.937-10.937 6.03 0 10.937 4.906 10.937 10.937 0 6.03-4.906 10.937-10.937 10.937zm11.199-19.295a3.235 3.235 0 01-3.232-3.232 3.235 3.235 0 013.232-3.232A3.236 3.236 0 0134.43 8.41a3.235 3.235 0 01-3.232 3.232z" fill="#544D4D"/><path d="M20 11.408c-4.738 0-8.592 3.854-8.592 8.592s3.854 8.592 8.592 8.592 8.592-3.854 8.592-8.592-3.854-8.592-8.592-8.592zM31.199 7.523a.888.888 0 000 1.774.888.888 0 000-1.774z" fill="#544D4D"/></svg>