<svg width="40" height="40" fill="none" xmlns="http://www.w3.org/2000/svg"><g clip-path="url(#clip0)"><path d="M39.788 29.2a2.753 2.753 0 00-.136-.26c-.694-1.25-2.02-2.785-3.977-4.603l-.042-.042-.02-.02-.021-.021h-.021c-.889-.847-1.451-1.417-1.687-1.708-.431-.556-.528-1.118-.292-1.688.166-.43.791-1.339 1.874-2.727.57-.736 1.02-1.326 1.354-1.77 2.402-3.194 3.443-5.235 3.124-6.124l-.124-.207c-.084-.125-.299-.24-.645-.344-.348-.104-.792-.121-1.334-.052l-5.998.041c-.097-.034-.235-.03-.416.011l-.271.063-.104.052-.083.062a.927.927 0 00-.23.219 1.428 1.428 0 00-.207.364 34.013 34.013 0 01-2.229 4.686 44.385 44.385 0 01-1.416 2.24c-.43.63-.792 1.096-1.083 1.394a7.563 7.563 0 01-.792.719c-.236.18-.416.257-.54.229a15.639 15.639 0 01-.355-.083 1.386 1.386 0 01-.469-.51 2.287 2.287 0 01-.24-.813 8.962 8.962 0 01-.072-.843c-.007-.236-.004-.57.01-1 .015-.43.021-.722.021-.875 0-.528.01-1.1.031-1.718.021-.618.038-1.108.052-1.468.015-.361.021-.743.021-1.146 0-.402-.024-.718-.073-.947a3.238 3.238 0 00-.218-.667 1.122 1.122 0 00-.427-.5 2.407 2.407 0 00-.698-.281c-.735-.167-1.672-.257-2.811-.27-2.583-.028-4.242.138-4.978.5-.291.152-.555.36-.791.624-.25.306-.285.472-.104.5.833.124 1.422.423 1.77.895l.125.25c.097.18.194.5.291.958.098.458.16.965.188 1.52.07 1.014.07 1.882 0 2.604a30.95 30.95 0 01-.198 1.687c-.063.402-.156.729-.281.978a4.11 4.11 0 01-.25.458.358.358 0 01-.104.105 1.56 1.56 0 01-.563.104c-.194 0-.43-.097-.708-.292a5.001 5.001 0 01-.864-.802c-.298-.34-.635-.816-1.01-1.426A24.869 24.869 0 0110.6 15.09l-.334-.604a52.177 52.177 0 01-.853-1.697 32.737 32.737 0 01-.958-2.156 1.373 1.373 0 00-.5-.667l-.104-.062a1.425 1.425 0 00-.333-.177 2.21 2.21 0 00-.48-.136l-5.706.042c-.583 0-.979.132-1.187.396l-.083.125c-.042.07-.063.18-.063.333 0 .153.042.34.125.562a68.737 68.737 0 002.718 5.665c.979 1.819 1.83 3.284 2.55 4.394a51.885 51.885 0 002.208 3.145c.75.986 1.247 1.617 1.49 1.895.243.278.434.486.572.625l.521.5c.333.333.823.732 1.468 1.197.646.465 1.361.923 2.145 1.375.785.45 1.698.819 2.74 1.103 1.04.285 2.054.4 3.04.344h2.395c.486-.042.854-.194 1.104-.458l.083-.104a1.38 1.38 0 00.156-.385c.048-.174.073-.365.073-.573a6.868 6.868 0 01.135-1.614c.104-.479.222-.84.354-1.083a2.66 2.66 0 01.448-.614c.166-.166.285-.267.354-.302.07-.035.125-.058.167-.073.333-.11.725-.003 1.177.323.45.327.874.73 1.27 1.208.396.48.871 1.017 1.427 1.614.555.597 1.04 1.041 1.457 1.333l.417.25c.278.167.639.32 1.083.458.444.14.832.174 1.166.105l5.331-.084c.528 0 .938-.087 1.23-.26.29-.174.464-.365.52-.573.056-.208.059-.444.01-.708-.049-.264-.098-.448-.146-.552z" fill="#544D4D"/></g><defs><clipPath id="clip0"><path fill="#fff" d="M0 0h40v40H0z"/></clipPath></defs></svg>