<svg width="25" height="25" fill="none" xmlns="http://www.w3.org/2000/svg"><g clip-path="url(#clip0)" fill="#544D4D"><path d="M12.5 25a1.493 1.493 0 01-1.307-.758l-.008-.015-6.2-11.347a8.703 8.703 0 01.114-8.6C6.616 1.663 9.31.064 12.308.002c.128-.002.257-.002.384 0 2.997.062 5.692 1.661 7.21 4.28a8.704 8.704 0 01.113 8.6l-6.2 11.346A1.493 1.493 0 0112.5 25zm0-23.438c-.053 0-.107 0-.16.002-2.447.05-4.648 1.358-5.89 3.5a7.153 7.153 0 00-.094 7.067L12.5 23.376l6.144-11.245a7.153 7.153 0 00-.095-7.067c-1.24-2.142-3.442-3.45-5.888-3.5a7.923 7.923 0 00-.16-.002z"/><path d="M12.5 11.328a3.52 3.52 0 01-3.516-3.515A3.52 3.52 0 0112.5 4.296a3.52 3.52 0 013.516 3.516 3.52 3.52 0 01-3.516 3.515zm0-5.469a1.955 1.955 0 00-1.953 1.954c0 1.076.876 1.953 1.953 1.953a1.955 1.955 0 001.953-1.954A1.955 1.955 0 0012.5 5.86z"/></g><defs><clipPath id="clip0"><path fill="#fff" d="M0 0h25v25H0z"/></clipPath></defs></svg>