<svg width="52" height="49" fill="none" xmlns="http://www.w3.org/2000/svg"><g clip-path="url(#clip0)" fill="#544D4D"><path d="M26 36.752c7.177 0 13-5.488 13-12.25s-5.824-12.25-13-12.25-13 5.489-13 12.25c0 6.763 5.825 12.25 13 12.25z"/><path d="M26.001 49c14.365 0 26-10.964 26-24.5S40.365 0 26 0C11.634 0 0 10.966 0 24.502c0 13.536 11.635 24.5 26 24.5zm0-44.1c11.491 0 20.8 8.771 20.8 19.6 0 10.83-9.308 19.6-20.8 19.6S5.2 35.33 5.2 24.5C5.2 13.673 14.508 4.9 26 4.9z"/></g><defs><clipPath id="clip0"><path fill="#fff" transform="rotate(179.999 26 24.5)" d="M0 0h52v49H0z"/></clipPath></defs></svg>