<svg width="26" height="29" fill="none" xmlns="http://www.w3.org/2000/svg"><path d="M21.658 3.287c-.004-.017-.013-.03-.017-.046a.48.48 0 00-.127-.217.393.393 0 00-.071-.053.418.418 0 00-.068-.037.393.393 0 00-.087-.02.4.4 0 00-.055-.014H19.05c-.112-1.682-.812-2.9-1.716-2.9-.903 0-1.603 1.218-1.715 2.9h-.903C14.603 1.218 13.903 0 13 0s-1.603 1.218-1.715 2.9h-.903C10.27 1.218 9.57 0 8.667 0c-.904 0-1.604 1.218-1.715 2.9h-.904C5.937 1.218 5.237 0 4.333 0 3.43 0 2.73 1.218 2.618 2.9H.433C.194 2.9 0 3.116 0 3.383v25.134c0 .267.194.483.433.483h20.8c.24 0 .434-.216.434-.483v-1.45h3.9c.13 0 .253-.066.335-.178a.526.526 0 00.089-.402l-4.333-23.2zM17.333.967c.313 0 .75.74.846 1.933h-1.69c.095-1.193.531-1.933.844-1.933zM13 .967c.313 0 .75.74.846 1.933h-1.69c.094-1.193.531-1.933.844-1.933zm-4.333 0c.313 0 .75.74.846 1.933h-1.69c.094-1.193.53-1.933.844-1.933zm-4.334 0c.313 0 .75.74.846 1.933H3.49c.095-1.193.531-1.933.844-1.933zm-3.466 2.9h1.751c.112 1.682.812 2.9 1.715 2.9.24 0 .434-.217.434-.484S4.573 5.8 4.333 5.8c-.313 0-.75-.74-.846-1.933h3.465c.113 1.682.811 2.9 1.715 2.9.239 0 .433-.217.433-.484S8.906 5.8 8.667 5.8c-.313 0-.75-.74-.846-1.933h3.464c.113 1.682.812 2.9 1.715 2.9.24 0 .433-.217.433-.484S13.24 5.8 13 5.8c-.313 0-.75-.74-.846-1.933h3.464c.113 1.682.812 2.9 1.715 2.9.24 0 .434-.217.434-.484s-.194-.483-.434-.483c-.313 0-.75-.74-.846-1.933H20.8V8.7H.867V3.867zM20.8 28.033H.867V9.667H20.8v18.366zm.867-1.933V8.072L25.034 26.1h-3.367z" fill="#CB4F12"/><path d="M9.533 17.4H7.8c-.24 0-.433.217-.433.484v1.933c0 .267.194.483.433.483h1.733c.24 0 .434-.216.434-.483v-1.933c0-.267-.194-.484-.434-.484zM9.1 19.334h-.867v-.967H9.1v.967zM13.867 17.4h-1.734c-.239 0-.433.217-.433.484v1.933c0 .267.194.483.434.483h1.733c.24 0 .433-.216.433-.483v-1.933c0-.267-.194-.484-.433-.484zm-.434 1.934h-.866v-.967h.867v.967zM5.2 17.4H3.467c-.24 0-.434.217-.434.484v1.933c0 .267.194.483.434.483H5.2c.24 0 .433-.216.433-.483v-1.933c0-.267-.194-.484-.433-.484zm-.433 1.934H3.9v-.967h.867v.967zM9.533 22.233H7.8c-.24 0-.433.217-.433.484v1.933c0 .267.194.483.433.483h1.733c.24 0 .434-.216.434-.483v-1.933c0-.267-.194-.484-.434-.484zM9.1 24.167h-.867V23.2H9.1v.967zM13.867 22.233h-1.734c-.239 0-.433.217-.433.484v1.933c0 .267.194.483.434.483h1.733c.24 0 .433-.216.433-.483v-1.933c0-.267-.194-.484-.433-.484zm-.434 1.934h-.866V23.2h.867v.967zM5.2 22.233H3.467c-.24 0-.434.217-.434.484v1.933c0 .267.194.483.434.483H5.2c.24 0 .433-.216.433-.483v-1.933c0-.267-.194-.484-.433-.484zm-.433 1.934H3.9V23.2h.867v.967zM9.533 12.566H7.8c-.24 0-.433.217-.433.484v1.933c0 .267.194.483.433.483h1.733c.24 0 .434-.216.434-.483V13.05c0-.267-.194-.484-.434-.484zM9.1 14.5h-.867v-.967H9.1v.967zM13.867 12.566h-1.734c-.239 0-.433.217-.433.484v1.933c0 .267.194.483.434.483h1.733c.24 0 .433-.216.433-.483V13.05c0-.267-.194-.484-.433-.484zm-.434 1.934h-.866v-.967h.867v.967zM18.2 17.4h-1.733c-.24 0-.434.217-.434.484v1.933c0 .267.194.483.433.483H18.2c.24 0 .433-.216.433-.483v-1.933c0-.267-.194-.484-.433-.484zm-.433 1.934H16.9v-.967h.867v.967zM18.2 22.233h-1.733c-.24 0-.434.217-.434.484v1.933c0 .267.194.483.433.483H18.2c.24 0 .433-.216.433-.483v-1.933c0-.267-.194-.484-.433-.484zm-.433 1.934H16.9V23.2h.867v.967zM18.2 12.566h-1.733c-.24 0-.434.217-.434.484v1.933c0 .267.194.483.433.483H18.2c.24 0 .433-.216.433-.483V13.05c0-.267-.194-.484-.433-.484zm-.433 1.934H16.9v-.967h.867v.967zM5.2 12.566H3.467c-.24 0-.434.217-.434.484v1.933c0 .267.194.483.434.483H5.2c.24 0 .433-.216.433-.483V13.05c0-.267-.194-.484-.433-.484zM4.767 14.5H3.9v-.967h.867v.967z" fill="#CB4F12"/></svg>