<svg width="72" height="231" fill="none" xmlns="http://www.w3.org/2000/svg"><path d="M71.582 2.947c-.08-.258-.26-.453-.457-.623.581-.858.07-2.467-1.223-2.314-11.166 1.321-22.377 2.101-33.63 2.222-5.313.057-15.4-2.385-19.69 1.029-.338.269-.243.887.145 1.069l.153.07c-2.949 1.629-5.296 4.656-7.557 7.05-2.347 2.487-4.626 6.227-8.114 7.254-.714.21-.764.861-.495 1.314-.023.209.012.42.21.58l.544.439c.162.13.345.144.515.113-.007.05-.05.07-.049.126C4.228 75.166 6.77 129.032 8.88 182.93c0 .035.018.058.022.091-.344.68-.065 1.622.994 1.675 4.605.23 9.234.004 13.842-.102 4.047-.093 8.24.18 12.18-.764.1-.024.145-.109.227-.156.461.09.96-.139 1.066-.682.03-.014.05.005.08-.013 2.036-1.186 4.024-2.442 6.02-3.686 1.785-1.112 3.997-2.075 5.403-3.617.639-.7.044-2.077-1.037-1.703-.054.019-.102.051-.155.07C48.968 117.607 62.564 60.65 71.412 4.881l.07-.075c.585-.609.488-1.335.1-1.86zM35.476 181.6c-3.848-.585-7.852-.136-11.737.011-3.91.148-7.83.26-11.729.58a.423.423 0 00-.322-.287c.013-2-.007-4.01-.002-6.014 3.971.193 7.941.389 11.918.496.742.021.732-1.053 0-1.097-3.971-.238-7.945-.387-11.92-.54.005-2.48-.027-4.969-.035-7.451 4.847.215 9.693.428 14.546.549.918.024.91-1.314 0-1.358-4.85-.235-9.7-.378-14.552-.52-.013-2.892-.061-5.791-.09-8.687 4.446.239 8.892.505 13.343.646.838.026.825-1.184 0-1.237-4.448-.282-8.902-.44-13.356-.623-.056-5.169-.146-10.341-.257-15.517 5.839-.302 11.678-.602 17.507-1.046 1.005-.077 1.03-1.562 0-1.516-5.851.265-11.692.675-17.534 1.084-.062-2.835-.196-5.673-.276-8.51 5.291-.289 10.587-.539 15.865-1.011.977-.087 1.006-1.541 0-1.48-5.312.318-10.605.858-15.901 1.359-.1-3.479-.272-6.96-.396-10.44 6.08.078 12.157.153 18.238.091 1.127-.011 1.128-1.661 0-1.672-6.099-.062-12.196.013-18.294.092-.255-6.927-.58-13.853-.93-20.777 5.757.15 11.534.248 17.28.02 1.067-.042 1.07-1.542 0-1.585-5.768-.23-11.57-.13-17.349.02-.198-3.827-.439-7.65-.667-11.476 5.44.152 10.843.02 16.253-.754.75-.107.574-1.303-.18-1.265-5.387.263-10.768.524-16.159.567-.25-4.104-.6-8.192-.885-12.29 7.649-.256 15.25-.014 22.874.754.89.09 1.106-1.368.214-1.505-7.712-1.185-15.429-1.45-23.203-.856-.241-3.408-.537-6.805-.8-10.21 6.45.19 13.134.189 19.473-1.07.898-.178.706-1.592-.218-1.54-6.464.37-12.86 1.222-19.345 1.435-.314-4.048-.665-8.087-1.009-12.128 9.866.119 19.59.947 29.425 1.693.87.066 1.055-1.273.206-1.453C25.748 43.01 15.628 42.6 5.69 43.02 5.067 35.84 4.4 28.674 3.603 21.539c4.67 2.066 21.832 1.065 24.371 1.015 8.997-.177 17.893-1.024 26.775-2.361C43.447 73.065 35.255 127.53 35.476 181.6zm19.033-88.237c-4.301 26.795-10.758 54.293-8.68 81.521-1.274.769-2.458 1.743-3.648 2.56a317.121 317.121 0 00-4.75 3.315C41.52 126.814 46.632 73.596 57.95 20.477c.158-.739-.217-1.277-.74-1.593 1.667-.889 7.147-6.534 10.852-10.442-4.567 28.3-9.01 56.619-13.553 84.922zM68.916 3.108a314.192 314.192 0 00-10.02 10.466c-.96 1.049-2.738 2.454-3.471 3.987a1.768 1.768 0 00-1.532-.518c-16.282 2.202-32.141 2.03-48.424 2.183 1.302-.941 2.418-2.26 3.532-3.42 3.05-3.179 7.33-6.18 9.668-9.848.439-.688-.014-1.39-.664-1.64l.117-.119c.158-.159.146-.327.08-.475 2.613.452 11.128 1.472 12.114 1.501 4.628.139 9.266.1 13.892-.054 8.291-.276 16.513-1.09 24.724-2.166a1.71 1.71 0 01-.016.103zM46.184 199.189c.027-.179.043-.355.07-.535.11-.744-.876-1.01-1.177-.31-.055.128-.1.265-.153.393-.053.019-.105-.009-.157.021-3.274 1.896-6.28 4.523-9.248 6.87a1.539 1.539 0 00-1.029-.448c-7.683-.434-15.357-.197-22.975.85 1.177-.813 2.3-1.727 3.418-2.534 1.965-1.416 4.1-2.737 5.774-4.472.154-.159.19-.335.223-.508 7.52 1.115 15.515.479 23.083.329 1.43-.029 1.433-2.096 0-2.125-7.717-.153-15.881-.834-23.524.374-.21.032-.34.165-.426.326-.19-.019-.385-.029-.592.073-2.23 1.101-4.162 2.754-6.145 4.212-1.786 1.315-4 2.538-5.396 4.235l.04.022c-.402.403-.308 1.094.088 1.43-.02.105-.084.18-.084.299-.008 4.833-.017 9.666-.022 14.499-.003 2.082-.976 6.178.887 7.893 1.891 1.743 6.218.491 8.413.345 5.22-.343 10.446-.63 15.656-1.081.667-.057 1.26-.417 1.496-.99 2.185-.356 4.777-1.215 6.702-2.615.634.664 1.94.45 2.052-.711.797-8.296 1.702-16.432 2.876-24.676l.015-.012c.408-.333.36-.789.135-1.154zm-14.822 27.173c-3.402.165-6.8.38-10.198.592-1.814.113-8.44 1.463-9.793.643-.317-.193-.35-1.743-.294-3.504 4.4-.167 8.783-.348 13.173-.681.657-.05.678-1.003 0-.993-4.385.068-8.75.286-13.127.519.089-1.777.224-3.493.244-4.179.074.233.238.44.573.445 2.81.052 5.613.084 8.423.018.88-.021.881-1.285 0-1.306-2.81-.065-5.613-.035-8.423.018-.324.006-.485.201-.565.424l.005-10.283c7.162-.302 14.284-.357 21.442-.037a156.68 156.68 0 00-1.46 18.324zm9.317-3.573c-.796.731-1.558 1.493-2.512 2.09-1.125.703-2.363 1.166-3.637 1.536 0-6.503.441-12.957 1.42-19.401.007-.048-.006-.089-.002-.136 2.519-1.54 5.227-3.038 7.7-4.738-2.2 6.513-3.263 13.91-2.97 20.649z" fill="#544D4D"/><path d="M26.843 212.508c-4.753-.066-9.502-.021-14.255.017-.634.005-.635.936 0 .94 4.752.038 9.502.084 14.255.017.656-.007.657-.965 0-.974zM24.253 146.892c-3.025.19-6.048.399-9.07.643-.647.051-.66 1.014 0 .975 3.027-.179 6.048-.393 9.07-.625.66-.051.67-1.035 0-.993zM26.843 107.11c-4.968-.197-9.933-.038-14.903.053-.75.014-.752 1.1 0 1.114 4.97.09 9.934.251 14.903.053.82-.034.822-1.188 0-1.22zM30.733 32.052c-8.35-.979-16.535-.599-24.829.656-.852.129-.66 1.565.206 1.454 8.177-1.05 16.393-1.128 24.623-.681.98.052.929-1.32 0-1.429z" fill="#544D4D"/></svg>